# xmcd
#
# Track frame offsets: 
#        150
#        15705
#        30752
#        47580
#        64087
#        83267
#        96160
#        114752
#        126922
#        142585
#        158892
#        182192
#
# Disc length: 2589 seconds
#
# Revision: 0
# Processed by: cddbd v1.5.2PL0 Copyright (c) Steve Scherf et al.
# Submitted via: ExactAudioCopy v0.95b4
#
DISCID=830a1b0c
DTITLE=Dan Miller - Due West
DYEAR=2003
DGENRE=
TTITLE0=Three Wooden Crosses
TTITLE1=Jesus Loved the Hell Out Of Me
TTITLE2=Don't Ever Sell Your Saddle
TTITLE3=The Mountains Keep Calling Me Home
TTITLE4=Baptism
TTITLE5=Pray For The Fish
TTITLE6=Stand With Me
TTITLE7=Which Way Will You Choose
TTITLE8=Cowboy Prayer
TTITLE9=San Antonio Rose
TTITLE10=Cowboy Philosophy
TTITLE11=Bumming Around
EXTD=
EXTT0=
EXTT1=
EXTT2=
EXTT3=
EXTT4=
EXTT5=
EXTT6=
EXTT7=
EXTT8=
EXTT9=
EXTT10=
EXTT11=
PLAYORDER=
